# xmcd
#
# Track frame offsets:
#	150
#	23323
#	42257
#	67301
#	92949
#	110286
#	127488
#	150964
#	170453
#	193626
#	212560
#	237604
#	263252
#	280589
#	297791
#	321267
#
# Disc length: 4543 seconds
#
# Revision: 1
# Processed by: cddbd v1.5.2PL0 Copyright (c) Steve Scherf et al.
# Submitted via: audiograbber 1.83.01
#
DISCID=e111bd10
DTITLE=Various Artist - MKP2-50281
DYEAR=1900
DGENRE=Karaoke
TTITLE0=Ashanti - Rain on Me
TTITLE1=Beyonce - Baby Boy
TTITLE2=Chingy - Holidae In
TTITLE3=R Kelly - Step in the Name of Love
TTITLE4=R Kelly - Thoia Thoing
TTITLE5=Chingy - Right Thurr
TTITLE6=Nelly - Shake Ya Tailfeather
TTITLE7=50 Cent - P.I.M.P.
TTITLE8=Ashanti - Rain on Me (Vocal Version)
TTITLE9=Beyonce - Baby Boy (Vocal Version)
TTITLE10=Chingy - Holidae In (Vocal Version)
TTITLE11=R Kelly - Step in the Name of Love (Vocal Version)
TTITLE12=R Kelly - Thoia Thoing (Vocal Version)
TTITLE13=Chingy - Right Thurr (Vocal Version)
TTITLE14=Nelly - Shake Ya Tailfeather (Vocal Version)
TTITLE15=50 Cent - P.I.M.P. (Vocal Version)
EXTD=
EXTT0=
EXTT1=
EXTT2=
EXTT3=
EXTT4=
EXTT5=
EXTT6=
EXTT7=
EXTT8=
EXTT9=
EXTT10=
EXTT11=
EXTT12=
EXTT13=
EXTT14=
EXTT15=
PLAYORDER=
